<?xml version="1.0" encoding="UTF-8"?>
<!DOCTYPE svg PUBLIC "-//W3C//DTD SVG 1.1//EN" "http://www.w3.org/Graphics/SVG/1.1/DTD/svg11.dtd">
<!-- Creator: CorelDRAW 2021 (64-Bit) -->
<svg xmlns="http://www.w3.org/2000/svg" xml:space="preserve" width="59.6298mm" height="10.6495mm" version="1.1" style="shape-rendering:geometricPrecision; text-rendering:geometricPrecision; image-rendering:optimizeQuality; fill-rule:evenodd; clip-rule:evenodd"
viewBox="0 0 5281.65 943.27"
 xmlns:xlink="http://www.w3.org/1999/xlink"
 xmlns:xodm="http://www.corel.com/coreldraw/odm/2003">
 <defs>
  <style type="text/css">
   <![CDATA[
    .fil0 {fill:#FF2D00}
    .fil2 {fill:white;fill-rule:nonzero}
    .fil1 {fill:#FF3D00;fill-opacity:0.529412}
   ]]>
  </style>
 </defs>
 <g id="Layer_x0020_1">
  <metadata id="CorelCorpID_0Corel-Layer"/>
  <circle class="fil0" cx="145.97" cy="145.97" r="145.97"/>
  <circle class="fil0" cx="605.06" cy="145.97" r="145.97"/>
  <circle class="fil0" cx="145.97" cy="535.23" r="145.97"/>
  <path class="fil1" d="M605.07 389.27c80.61,0 145.97,65.35 145.97,145.96 0,80.62 -65.36,145.97 -145.97,145.97 -80.62,0 -145.97,-65.35 -145.97,-145.97 0,-80.61 65.35,-145.96 145.97,-145.96z"/>
  <g transform="matrix(1 0 0 1 -1831.41 205.828)">
   <path class="fil2" d="M2029.6 283.09c0,-46.09 -12.01,-81.69 -35.81,-106.78 -24.01,-25.08 -57.46,-37.73 -100.56,-37.73 -39.88,0 -70.54,12.21 -92.41,36.45 -21.66,24.44 -32.6,58.75 -32.6,103.13l-25.73 -125.64c20.37,-43.1 47.6,-76.55 81.27,-100.13 33.66,-23.8 70.97,-35.59 111.5,-35.59 46.95,0 87.05,10.29 120.28,31.09 33.23,20.8 58.75,51.03 76.11,90.7 17.37,39.88 25.94,87.9 25.94,143.87l0 395.8 -128 0 0 -395.16zm-778.96 -256.86l128.01 0 0 652.03 -128.01 0 0 -652.03zm389.37 256.86c0,-46.09 -11.36,-81.69 -33.87,-106.78 -22.73,-25.08 -54.68,-37.73 -96.06,-37.73 -42.03,0 -74.19,11.14 -97.13,33.45 -22.73,22.08 -34.3,53.38 -34.3,93.48l-13.08 -125.64c20.16,-39.24 46.32,-69.69 78.9,-91.12 32.38,-21.23 68.18,-31.95 107.64,-31.95 45.68,0 84.69,10.29 116.86,31.09 32.16,20.8 56.82,51.03 73.76,90.7 16.94,39.88 25.51,87.9 25.51,143.87l0 395.8 -128.22 0 0 -395.16z"/>
   <path id="_1" class="fil2" d="M2647.47 264.87c0,-42.67 -11.58,-75.91 -34.3,-99.5 -22.94,-23.58 -55.11,-35.59 -97.13,-35.59 -25.94,0 -51.46,4.07 -76.33,12.01 -24.87,7.93 -46.95,19.08 -66.25,33.23l-93.48 -64.11c24.66,-29.59 57.25,-52.75 97.56,-69.26 40.52,-16.51 85.33,-24.87 134.86,-24.87 54.04,0 100.13,9.43 138.72,28.51 38.6,19.09 67.97,46.75 87.91,82.98 20.16,36.24 30.24,79.97 30.24,131l0 418.96 -121.79 0 0 -413.38zm-159.73 422.82c-80.41,0 -140.44,-16.72 -180.11,-49.96 -39.88,-33.23 -59.82,-83.84 -59.82,-151.59 0,-64.54 18.22,-112.99 54.68,-145.16 36.45,-32.37 91.55,-48.46 165.31,-48.46l185.25 0 8.8 103.14 -193.4 0c-33.67,0 -58.54,7.29 -75.26,22.29 -16.51,14.8 -24.66,37.53 -24.66,68.18 0,33.02 10.94,57.47 33.02,73.33 21.87,16.09 55.32,24.01 100.13,24.01 48.88,0 85.55,-5.36 109.57,-15.86 24.01,-10.29 36.24,-26.8 36.24,-48.88l13.08 91.77c-11.36,17.58 -25.31,31.94 -41.82,43.3 -16.51,11.15 -35.59,19.73 -57.46,25.31 -21.66,5.78 -46.32,8.57 -73.54,8.57z"/>
   <path id="_2" class="fil2" d="M2890.75 26.23l128.01 0 0 652.03 -128.01 0 0 -652.03zm395.59 256.86c0,-46.09 -11.79,-81.69 -35.8,-106.78 -23.8,-25.08 -57.25,-37.73 -100.35,-37.73 -42.03,0 -74.19,11.14 -97.13,33.45 -22.73,22.08 -34.3,53.38 -34.3,93.48l-13.08 -125.64c20.16,-39.24 46.32,-69.69 78.9,-91.12 32.38,-21.23 68.18,-31.95 107.64,-31.95 70.76,0 125.44,23.15 164.24,69.47 38.81,46.32 58.1,111.71 58.1,196.19l0 395.8 -128.22 0 0 -395.16z"/>
   <path id="_3" class="fil2" d="M3904.41 264.87c0,-42.67 -11.58,-75.91 -34.3,-99.5 -22.94,-23.58 -55.11,-35.59 -97.13,-35.59 -25.94,0 -51.46,4.07 -76.33,12.01 -24.87,7.93 -46.95,19.08 -66.25,33.23l-93.48 -64.11c24.66,-29.59 57.25,-52.75 97.56,-69.26 40.52,-16.51 85.33,-24.87 134.86,-24.87 54.04,0 100.13,9.43 138.72,28.51 38.6,19.09 67.97,46.75 87.91,82.98 20.16,36.24 30.24,79.97 30.24,131l0 418.96 -121.79 0 0 -413.38zm-159.73 422.82c-80.41,0 -140.44,-16.72 -180.11,-49.96 -39.88,-33.23 -59.82,-83.84 -59.82,-151.59 0,-64.54 18.22,-112.99 54.68,-145.16 36.45,-32.37 91.55,-48.46 165.31,-48.46l185.25 0 8.8 103.14 -193.4 0c-33.67,0 -58.54,7.29 -75.26,22.29 -16.51,14.8 -24.66,37.53 -24.66,68.18 0,33.02 10.94,57.47 33.02,73.33 21.87,16.09 55.32,24.01 100.13,24.01 48.88,0 85.55,-5.36 109.57,-15.86 24.01,-10.29 36.24,-26.8 36.24,-48.88l13.08 91.77c-11.36,17.58 -25.31,31.94 -41.82,43.3 -16.51,11.15 -35.59,19.73 -57.46,25.31 -21.66,5.78 -46.32,8.57 -73.54,8.57z"/>
   <path id="_4" class="fil2" d="M4366.18 943.27c-48.88,0 -92.83,-9.01 -131.43,-27.23 -38.8,-18.23 -68.82,-43.96 -90.27,-76.98l0 0 86.63 -78.47 0 0c16.94,22.94 36.87,40.74 60.04,53.38 23.37,12.44 47.6,18.87 73.11,18.87 49.11,0 87.06,-13.51 113.85,-40.52 26.8,-27.02 40.1,-65.18 40.1,-114.71l0 -651.38 128.22 0 0 632.52c0,59.82 -10.94,111.28 -33.02,153.95 -21.87,42.67 -53.82,75.26 -95.84,97.34 -41.82,22.29 -92.21,33.23 -151.38,33.23zm-11.79 -253.65c-47.81,0 -88.56,-10.5 -122.21,-31.09 -33.67,-20.8 -59.4,-51.03 -76.98,-90.91 -17.58,-39.66 -26.37,-87.48 -26.37,-143.22l0 -143.66c0,-56.17 8.57,-104.21 25.73,-143.87 17.15,-39.88 42.24,-70.12 75.04,-90.91 32.81,-20.58 72.26,-31.09 118.36,-31.09 38.59,0 73.97,10.08 105.92,30.23 31.95,20.16 57.89,48.25 77.62,84.69l-13.29 133.15c0,-27.45 -4.93,-51.25 -15,-70.97 -10.08,-19.51 -24.66,-34.52 -43.75,-44.81 -19.08,-10.29 -42.02,-15.44 -69.26,-15.44 -42.45,0 -75.04,13.29 -98.41,39.66 -23.15,26.38 -34.73,63.47 -34.73,111.07l0 141.94c0,47.38 11.58,84.05 34.73,109.78 23.37,25.73 55.96,38.59 98.41,38.59 27.24,0 50.18,-5.36 69.26,-16.08 19.09,-10.73 33.67,-25.95 43.75,-46.1 10.07,-20.15 15,-44.17 15,-72.26l8.8 137.44c-12.87,32.37 -34.09,59.39 -63.68,81.05 -29.58,21.87 -65.82,32.81 -108.92,32.81z"/>
   <path id="_5" class="fil2" d="M5034.86 687.69c-60.25,0 -111.92,-11.36 -154.59,-33.88 -42.67,-22.73 -75.26,-55.96 -97.56,-99.7 -22.51,-43.74 -33.66,-96.48 -33.66,-158.45l0 -73.54c0,-64.54 10.72,-119.65 32.37,-165.31 21.44,-45.67 52.75,-80.41 93.92,-104.21 40.96,-23.8 90.48,-35.8 148.16,-35.8 54.46,0 100.99,13.72 139.58,40.74 38.38,27.24 67.75,66.69 88.12,118.14 20.37,51.46 30.45,113.43 30.45,185.47l0 42.67 -439.76 0 0 -103.14 317.97 0 0 0c-3.86,-53.17 -17.58,-94.55 -41.17,-123.93 -23.59,-29.58 -55.31,-44.38 -95.2,-44.38 -48.46,0 -86.19,15.86 -112.78,47.81 -26.59,31.73 -39.88,76.76 -39.88,135.08l0 82.76c0,54.03 14.36,95.63 42.67,124.36 28.51,28.95 69.04,43.53 121.36,43.53 25.94,0 51.67,-5.36 77.19,-15.86 25.51,-10.29 48.45,-25.08 68.61,-43.95l0 0 84.05 84.26 0 0c-32.16,30.88 -68.4,54.89 -108.71,71.82 -40.1,16.94 -80.62,25.52 -121.14,25.52z"/>
  </g>
 </g>
</svg>
